#!OML:ASF H:\Dans Jumps\Project 1\Capture day 1\Session 1\subject.ASF
:FULLY-SPECIFIED
:DEGREES
164
root 0.207429 14.9149 -15.2024 29.3181 1.48009 -1.32754
lowerback 24.1366 0.618101 -1.58811
upperback 4.81547 0.685247 2.91123
thorax -8.17967 0.39071 3.91352
lowerneck -23.8761 -0.0792132 -1.7766
upperneck 9.40737 0.696186 -1.57975
head 6.69448 0.112938 -0.15276
rclavicle 5.1684e-015 -9.93923e-015
rhumerus -36.3953 -21.4608 -68.4544
rradius 20.1537
rwrist 35.8664
rhand -17.7461 -25.0309
rfingers 7.12502
rthumb 8.51534 -54.8392
lclavicle 5.1684e-015 -9.93923e-015
lhumerus -30.2241 20.5613 75.1968
lradius 8.28243
lwrist -10.4908
lhand -22.0793 -1.90761
lfingers 7.12502
lthumb 4.33217 28.0281
rfemur -71.9218 -0.488845 20.3411
rtibia 74.2097
rfoot -31.8206 -14.8014
rtoes 2.20039
lfemur -71.873 4.96212 -21.3686
ltibia 73.4305
lfoot -26.5634 20.0526
ltoes -6.97068
165
root 0.205764 14.9521 -15.1177 29.3339 1.56584 -1.34662
lowerback 24.0104 0.609472 -1.57525
upperback 4.65732 0.681852 2.92256
thorax -8.28965 0.39314 3.92027
lowerneck -23.9726 -0.0809815 -1.77059
upperneck 9.47844 0.699341 -1.60133
head 6.733 0.111208 -0.160575
rclavicle -5.1684e-015 -1.64991e-014
rhumerus -34.7687 -21.6704 -69.054
rradius 20.4765
rwrist 35.8323
rhand -17.9831 -25.2669
rfingers 7.12502
rthumb 8.2866 -55.0844
lclavicle -5.1684e-015 -1.64991e-014
lhumerus -28.6567 21.4332 75.396
lradius 8.41817
lwrist -11.0211
lhand -22.912 -2.39468
lfingers 7.12502
lthumb 3.52813 27.5559
rfemur -71.3123 -0.550672 20.4075
rtibia 73.761
rfoot -31.5544 -14.8752
rtoes 2.11017
lfemur -71.281 4.96951 -21.2806
ltibia 73.004
lfoot -26.4299 19.9183
ltoes -6.86328
166
root 0.204366 14.9932 -15.0276 29.2991 1.66196 -1.36451
lowerback 23.8638 0.593889 -1.55628
upperback 4.50173 0.671233 2.93589
thorax -8.38543 0.391778 3.92767
lowerneck -24.0613 -0.0832828 -1.77774
upperneck 9.58569 0.705021 -1.61333
head 6.78222 0.110647 -0.162852
rclavicle 5.56597e-015 -1.41137e-014
rhumerus -33.1111 -21.7475 -69.7288
rradius 20.9104
rwrist 35.5266
rhand -18.2577 -25.5021
rfingers 7.12502
rthumb 8.0216 -55.3299
lclavicle 5.56597e-015 -1.41137e-014
lhumerus -27.1146 22.2972 75.6272
lradius 8.67717
lwrist -11.542
lhand -23.6778 -2.93232
lfingers 7.12502
lthumb 2.78853 27.0292
rfemur -70.5956 -0.648102 20.4897
rtibia 73.2564
rfoot -31.2282 -14.9741
rtoes 2.00558
lfemur -70.5852 4.97542 -21.1825
ltibia 72.5191
lfoot -26.2353 19.7457
ltoes -6.85266
167
root 0.203213 15.0387 -14.9323 29.212 1.76559 -1.38716
lowerback 23.6901 0.573665 -1.53262
upperback 4.35347 0.656352 2.95621
thorax -8.45838 0.387901 3.94099
lowerneck -24.1439 -0.0808131 -1.78742
upperneck 9.73366 0.720196 -1.63489
head 6.84409 0.113093 -0.166717
rclavicle 6.75868e-015 -3.49861e-014
rhumerus -31.4402 -21.6982 -70.4531
rradius 21.4522
rwrist 34.9579
rhand -18.5832 -25.7055
rfingers 7.12502
rthumb 7.70741 -55.5451
lclavicle 6.75868e-015 -3.49861e-014
lhumerus -25.6124 23.1548 75.8902
lradius 9.06074
lwrist -11.9874
lhand -24.3555 -3.50345
lfingers 7.12502
lthumb 2.13402 26.4656
rfemur -69.7679 -0.775628 20.5927
rtibia 72.6898
rfoot -30.8555 -15.1032
rtoes 1.81859
lfemur -69.781 4.98731 -21.0706
ltibia 71.974
lfoot -26.0125 19.5591
ltoes -7.0307
168
root 0.20222 15.0889 -14.8314 29.0716 1.87609 -1.42213
lowerback 23.4813 0.549131 -1.50104
upperback 4.21608 0.638616 2.98688
thorax -8.5004 0.381944 3.96146
lowerneck -24.2201 -0.0683026 -1.78999
upperneck 9.92758 0.751441 -1.68073
head 6.92052 0.120538 -0.177749
rclavicle 9.74045e-015 3.81667e-014
rhumerus -29.766 -21.5673 -71.1917
rradius 22.067
rwrist 34.2052
rhand -18.9509 -25.8703
rfingers 7.12502
rthumb 7.35257 -55.7226
lclavicle 9.74045e-015 3.81667e-014
lhumerus -24.1637 24.0077 76.181
lradius 9.56268
lwrist -12.2914
lhand -24.8527 -4.03824
lfingers 7.12502
lthumb 1.65383 25.9351
rfemur -68.8224 -0.925831 20.7224
rtibia 72.0522
rfoot -30.4707 -15.2519
rtoes 1.47169
lfemur -68.8646 5.01744 -20.9429
ltibia 71.3657
lfoot -25.8029 19.3769
ltoes -7.4548
169
root 0.201515 15.1449 -14.7247 28.8676 1.98395 -1.47494
lowerback 23.2365 0.523777 -1.46467
upperback 4.09877 0.621516 3.02873
thorax -8.50102 0.375336 3.99053
lowerneck -24.2876 -0.0424475 -1.78002
upperneck 10.1665 0.802266 -1.75523
head 7.01099 0.134398 -0.197812
rclavicle 2.98177e-015 -2.5842e-015
rhumerus -28.0906 -21.3827 -71.9269
rradius 22.7218
rwrist 33.3674
rhand -19.3872 -25.9817
rfingers 7.12502
rthumb 6.93135 -55.8482
lclavicle 2.98177e-015 -2.5842e-015
lhumerus -22.7563 24.8619 76.5036
lradius 10.1401
lwrist -12.4138
lhand -25.2374 -4.63793
lfingers 7.12502
lthumb 1.28231 25.338
rfemur -67.7364 -1.08946 20.8787
rtibia 71.329
rfoot -30.1066 -15.4059
rtoes 0.901444
lfemur -67.8133 5.08241 -20.8021
ltibia 70.6838
lfoot -25.6395 19.2196
ltoes -8.15286
170
root 0.201153 15.2078 -14.6125 28.6133 2.08024 -1.5409
lowerback 22.9417 0.499561 -1.4337
upperback 3.99961 0.604723 3.0787
thorax -8.45483 0.368108 4.03054
lowerneck -24.324 -0.00159626 -1.75722
upperneck 10.4389 0.873478 -1.8541
head 7.10828 0.155687 -0.225394
rclavicle 1.98785e-016 -2.38542e-015
rhumerus -26.4187 -21.1654 -72.6496
rradius 23.3815
rwrist 32.5514
rhand -19.8533 -26.1057
rfingers 7.12502
rthumb 6.48142 -55.9865
lclavicle 1.98785e-016 -2.38542e-015
lhumerus -20.9195 23.0799 77.9866
lradius 10.7821
lwrist -9.58711
lhand -25.8537 -4.89829
lfingers 7.12502
lthumb 0.687032 25.0803
rfemur -66.5189 -1.2592 21.05
rtibia 70.504
rfoot -29.786 -15.5465
rtoes 0.0616239
lfemur -66.6326 5.17922 -20.6552
ltibia 69.9118
lfoot -25.5361 19.0879
ltoes -9.0227
171
root 0.201218 15.279 -14.494 28.2923 2.1568 -1.61569
lowerback 22.6111 0.478697 -1.4177
upperback 3.9234 0.588654 3.13676
thorax -8.36405 0.360679 4.08692
lowerneck -24.3373 0.0532765 -1.72932
upperneck 10.7571 0.965319 -1.96714
head 7.21772 0.184909 -0.255858
rclavicle -5.76476e-015 3.85642e-014
rhumerus -24.7446 -20.9298 -73.353
rradius 24.0034
rwrist 31.8364
rhand -20.2905 -26.2483
rfingers 7.12502
rthumb 6.05938 -56.1417
lclavicle -5.76476e-015 3.85642e-014
lhumerus -19.1949 21.3944 79.3072
lradius 11.4262
lwrist -6.84335
lhand -26.4794 -5.29479
lfingers 7.12502
lthumb 0.0826974 24.6849
rfemur -65.1352 -1.42991 21.2251
rtibia 69.5589
rfoot -29.5215 -15.6552
rtoes -0.991007
lfemur -65.2896 5.31577 -20.5101
ltibia 69.0283
lfoot -25.4777 18.964
ltoes -9.92952
172
root 0.201752 15.3599 -14.3686 27.8953 2.21343 -1.6854
lowerback 22.2577 0.460858 -1.42426
upperback 3.87127 0.570729 3.19818
thorax -8.23412 0.352014 4.15963
lowerneck -24.3183 0.116053 -1.70803
upperneck 11.1245 1.07055 -2.07721
head 7.33897 0.219723 -0.282539
rclavicle 9.54166e-015 1.21259e-014
rhumerus -23.069 -20.6891 -74.0357
rradius 24.5402
rwrist 31.2808
rhand -20.7219 -26.3878
rfingers 7.12502
rthumb 5.64287 -56.2927
lclavicle 9.54166e-015 1.21259e-014
lhumerus -17.568 19.8642 80.4768
lradius 12.0717
lwrist -4.33394
lhand -26.9559 -5.54499
lfingers 7.12502
lthumb -0.377538 24.4344
rfemur -63.564 -1.60555 21.3864
rtibia 68.4778
rfoot -29.3022 -15.7249
rtoes -2.1429
lfemur -63.759 5.48105 -20.3761
ltibia 68.0106
lfoot -25.44 18.8241
ltoes -10.7457
173
root 0.202741 15.4512 -14.2362 27.4185 2.24612 -1.73739
lowerback 21.8859 0.447814 -1.45962
upperback 3.84341 0.551289 3.25512
thorax -8.06711 0.342293 4.24351
lowerneck -24.2593 0.177899 -1.70247
upperneck 11.5461 1.1767 -2.16359
head 7.47221 0.255783 -0.298651
rclavicle 8.34896e-015 -2.50469e-014
rhumerus -21.409 -20.4343 -74.7048
rradius 24.978
rwrist 30.8961
rhand -21.1393 -26.4986
rfingers 7.12502
rthumb 5.23983 -56.4138
lclavicle 8.34896e-015 -2.50469e-014
lhumerus -16.0279 18.5368 81.5027
lradius 12.6775
lwrist -2.25716
lhand -27.4053 -5.78371
lfingers 7.12502
lthumb -0.811549 24.1945
rfemur -61.794 -1.78234 21.5141
rtibia 67.2472
rfoot -29.1046 -15.7471
rtoes -3.24696
lfemur -62.0247 5.66336 -20.2598
ltibia 66.8377
lfoot -25.3745 18.6536
ltoes -11.3997
174
root 0.204051 15.5531 -14.0965 26.8608 2.25952 -1.76359
lowerback 21.501 0.439516 -1.52043
upperback 3.83507 0.530944 3.30136
thorax -7.87127 0.331742 4.32971
lowerneck -24.1506 0.227262 -1.72384
upperneck 12.035 1.26882 -2.20941
head 7.61996 0.287012 -0.298683
rclavicle -3.57812e-015 -3.02153e-014
rhumerus -19.7824 -20.1772 -75.3608
rradius 25.2982
rwrist 30.6907
rhand -21.5388 -26.5657
rfingers 7.12502
rthumb 4.85407 -56.4901
lclavicle -3.57812e-015 -3.02153e-014
lhumerus -14.5781 17.3472 82.4134
lradius 13.2279
lwrist -0.66791
lhand -27.8674 -6.04855
lfingers 7.12502
lthumb -1.25786 23.9275
rfemur -59.8207 -1.96135 21.5968
rtibia 65.8593
rfoot -28.8965 -15.7058
rtoes -4.14915
lfemur -60.0819 5.84977 -20.1612
ltibia 65.4975
lfoot -25.2501 18.4414
ltoes -11.9125
